<svg viewBox="0 0 250 250" fill="none" xmlns="http://www.w3.org/2000/svg">
<path d="M0 125C0 23.6486 58.4459 0 125 0C191.554 0 250 23.6486 250 125C250 226.351 191.554 250 125 250C58.4459 250 0 226.351 0 125Z" fill="#5FE11E"/>
<path d="M121.541 91.174C120.642 91.174 119.854 90.8366 119.18 90.1618C118.505 89.487 118.167 88.6997 118.167 87.7999V74.3032C118.167 69.5794 119.798 65.5867 123.06 62.325C126.322 59.0633 130.314 57.4324 135.038 57.4324H148.535C149.435 57.4324 150.222 57.7699 150.897 58.4447C151.572 59.1195 151.909 59.9068 151.909 60.8066V74.3032C151.909 79.0271 150.278 83.0198 147.016 86.2815C143.755 89.5432 139.762 91.174 135.038 91.174H121.541ZM81.0516 131.664C74.5282 131.664 68.9608 129.358 64.3495 124.747C59.7381 120.136 57.4324 114.568 57.4324 108.045V91.174C57.4324 89.262 58.0792 87.6593 59.3726 86.3659C60.666 85.0724 62.2687 84.4257 64.1808 84.4257H81.0516C87.5749 84.4257 93.1423 86.7314 97.7537 91.3428C102.365 95.9541 104.671 101.521 104.671 108.045V124.916C104.671 126.828 104.024 128.43 102.731 129.724C101.437 131.017 99.8344 131.664 97.9224 131.664H81.0516ZM151.909 192.399C147.523 192.399 143.333 191.724 139.34 190.374C135.347 189.025 131.72 187.169 128.459 184.807L122.891 190.374C121.654 191.612 120.079 192.23 118.167 192.23C116.255 192.23 114.681 191.612 113.444 190.374C112.206 189.137 111.588 187.563 111.588 185.651C111.588 183.739 112.206 182.164 113.444 180.927L119.011 175.359C116.649 172.098 114.793 168.47 113.444 164.478C112.094 160.485 111.419 156.295 111.419 151.909C111.419 140.662 115.356 131.073 123.229 123.144C131.102 115.215 140.662 111.25 151.909 111.25H179.071C182.783 111.25 185.96 112.572 188.603 115.215C191.246 117.858 192.568 121.035 192.568 124.747V151.909C192.568 163.156 188.603 172.716 180.674 180.589C172.744 188.462 163.156 192.399 151.909 192.399ZM151.909 178.902C159.445 178.902 165.799 176.259 170.973 170.973C176.147 165.687 178.733 159.332 178.733 151.909V124.916H151.909C144.486 124.916 138.131 127.531 132.845 132.761C127.559 137.991 124.916 144.373 124.916 151.909C124.916 154.496 125.225 156.942 125.844 159.248C126.462 161.553 127.39 163.719 128.627 165.743L147.185 147.185C148.422 145.948 149.997 145.329 151.909 145.329C153.821 145.329 155.396 145.948 156.633 147.185C157.87 148.422 158.489 149.997 158.489 151.909C158.489 153.821 157.87 155.396 156.633 156.633L138.075 175.191C140.099 176.428 142.264 177.356 144.57 177.974C146.876 178.593 149.322 178.902 151.909 178.902Z" fill="white"/>
</svg>
